<mxfile host="app.diagrams.net" agent="Mozilla/5.0 (Windows NT 10.0; Win64; x64; rv:136.0) Gecko/20100101 Firefox/136.0" version="26.1.0">
  <diagram name="PÃ¡gina-1" id="CtyK9KVQ4epfO3A9Yy7q">
    <mxGraphModel dx="1050" dy="654" grid="1" gridSize="10" guides="1" tooltips="1" connect="1" arrows="1" fold="1" page="1" pageScale="1" pageWidth="827" pageHeight="1169" math="0" shadow="0">
      <root>
        <mxCell id="0" />
        <mxCell id="1" parent="0" />
        <mxCell id="7txA--DmKsE96BsF9FNY-1" value="" style="sketch=0;verticalLabelPosition=bottom;sketch=0;aspect=fixed;html=1;verticalAlign=top;strokeColor=none;fillColor=#000000;align=center;outlineConnect=0;pointerEvents=1;shape=mxgraph.citrix2.site_database;" vertex="1" parent="1">
          <mxGeometry x="414" y="150" width="145.39" height="160.15" as="geometry" />
        </mxCell>
        <mxCell id="7txA--DmKsE96BsF9FNY-3" value="" style="sketch=0;verticalLabelPosition=bottom;sketch=0;aspect=fixed;html=1;verticalAlign=top;strokeColor=none;fillColor=#000000;align=center;outlineConnect=0;pointerEvents=1;shape=mxgraph.citrix2.authentication_oidc;fontFamily=Helvetica;fontSize=12;fontColor=default;labelBackgroundColor=default;" vertex="1" parent="1">
          <mxGeometry x="60" y="40" width="80" height="80" as="geometry" />
        </mxCell>
        <mxCell id="7txA--DmKsE96BsF9FNY-4" value="" style="sketch=0;verticalLabelPosition=bottom;sketch=0;aspect=fixed;html=1;verticalAlign=top;strokeColor=none;fillColor=#000000;align=center;outlineConnect=0;pointerEvents=1;shape=mxgraph.citrix2.authentication_oidc;fontFamily=Helvetica;fontSize=12;fontColor=default;labelBackgroundColor=default;" vertex="1" parent="1">
          <mxGeometry x="60" y="360" width="80" height="80" as="geometry" />
        </mxCell>
        <mxCell id="7txA--DmKsE96BsF9FNY-5" value="" style="endArrow=classic;html=1;rounded=0;fontFamily=Helvetica;fontSize=12;fontColor=default;labelBackgroundColor=default;" edge="1" parent="1" source="7txA--DmKsE96BsF9FNY-4">
          <mxGeometry width="50" height="50" relative="1" as="geometry">
            <mxPoint x="390" y="370" as="sourcePoint" />
            <mxPoint x="240" y="280" as="targetPoint" />
            <Array as="points" />
          </mxGeometry>
        </mxCell>
        <mxCell id="7txA--DmKsE96BsF9FNY-6" value="" style="endArrow=classic;html=1;rounded=0;fontFamily=Helvetica;fontSize=12;fontColor=default;labelBackgroundColor=default;" edge="1" parent="1" source="7txA--DmKsE96BsF9FNY-3">
          <mxGeometry width="50" height="50" relative="1" as="geometry">
            <mxPoint x="140" y="96" as="sourcePoint" />
            <mxPoint x="240" y="200" as="targetPoint" />
            <Array as="points" />
          </mxGeometry>
        </mxCell>
        <mxCell id="7txA--DmKsE96BsF9FNY-7" value="" style="strokeWidth=2;html=1;shape=mxgraph.lean_mapping.mrp_erp;whiteSpace=wrap;sketch=0;strokeColor=default;align=center;verticalAlign=top;fontFamily=Helvetica;fontSize=12;fontColor=default;labelBackgroundColor=default;fillColor=default;rotation=-90;" vertex="1" parent="1">
          <mxGeometry x="270" y="165.2" width="110.98" height="152.92" as="geometry" />
        </mxCell>
        <mxCell id="7txA--DmKsE96BsF9FNY-8" value="&lt;font style=&quot;font-size: 18px;&quot;&gt;Server &lt;br&gt;FIFO&lt;/font&gt;" style="text;html=1;align=center;verticalAlign=middle;resizable=0;points=[];autosize=1;strokeColor=none;fillColor=none;fontFamily=Helvetica;fontSize=12;fontColor=default;labelBackgroundColor=default;" vertex="1" parent="1">
          <mxGeometry x="290" y="208.05" width="80" height="60" as="geometry" />
        </mxCell>
        <mxCell id="7txA--DmKsE96BsF9FNY-9" value="&lt;font style=&quot;font-size: 14px;&quot;&gt;&lt;span style=&quot;&quot;&gt;Task&lt;/span&gt;&lt;br&gt;&lt;span style=&quot;&quot;&gt;Requested&lt;/span&gt;&lt;/font&gt;" style="text;html=1;align=center;verticalAlign=middle;resizable=0;points=[];autosize=1;fontFamily=Helvetica;fontSize=12;labelBackgroundColor=none;" vertex="1" parent="1">
          <mxGeometry x="180" y="318.12" width="90" height="50" as="geometry" />
        </mxCell>
        <mxCell id="7txA--DmKsE96BsF9FNY-10" value="&lt;font style=&quot;font-size: 14px;&quot;&gt;&lt;span style=&quot;&quot;&gt;Task&lt;/span&gt;&lt;br&gt;&lt;span style=&quot;&quot;&gt;Requested&lt;/span&gt;&lt;/font&gt;" style="text;html=1;align=center;verticalAlign=middle;resizable=0;points=[];autosize=1;fontFamily=Helvetica;fontSize=12;labelBackgroundColor=none;" vertex="1" parent="1">
          <mxGeometry x="120" y="150" width="90" height="50" as="geometry" />
        </mxCell>
        <mxCell id="7txA--DmKsE96BsF9FNY-11" value="&lt;font style=&quot;font-size: 18px;&quot;&gt;Server&lt;/font&gt;" style="text;html=1;align=center;verticalAlign=middle;resizable=0;points=[];autosize=1;strokeColor=none;fillColor=none;fontFamily=Helvetica;fontSize=12;fontColor=default;labelBackgroundColor=default;" vertex="1" parent="1">
          <mxGeometry x="446.69" y="320" width="80" height="40" as="geometry" />
        </mxCell>
        <mxCell id="7txA--DmKsE96BsF9FNY-14" value="" style="curved=1;endArrow=classic;html=1;rounded=0;fontFamily=Helvetica;fontSize=12;fontColor=default;labelBackgroundColor=default;" edge="1" parent="1" source="7txA--DmKsE96BsF9FNY-11">
          <mxGeometry width="50" height="50" relative="1" as="geometry">
            <mxPoint x="390" y="520" as="sourcePoint" />
            <mxPoint x="400" y="410" as="targetPoint" />
            <Array as="points">
              <mxPoint x="487" y="410" />
            </Array>
          </mxGeometry>
        </mxCell>
        <mxCell id="7txA--DmKsE96BsF9FNY-15" value="" style="strokeWidth=2;html=1;shape=mxgraph.lean_mapping.mrp_erp;whiteSpace=wrap;sketch=0;strokeColor=default;align=center;verticalAlign=top;fontFamily=Helvetica;fontSize=12;fontColor=default;labelBackgroundColor=none;fillColor=default;rotation=-90;" vertex="1" parent="1">
          <mxGeometry x="310.98" y="350" width="70" height="100" as="geometry" />
        </mxCell>
        <mxCell id="7txA--DmKsE96BsF9FNY-16" value="" style="strokeWidth=2;html=1;shape=mxgraph.lean_mapping.mrp_erp;whiteSpace=wrap;sketch=0;align=center;verticalAlign=top;fontFamily=Helvetica;fontSize=12;labelBackgroundColor=none;rotation=-90;" vertex="1" parent="1">
          <mxGeometry x="310.98" y="30" width="70" height="100" as="geometry" />
        </mxCell>
        <mxCell id="7txA--DmKsE96BsF9FNY-18" value="" style="curved=1;endArrow=classic;html=1;rounded=0;fontFamily=Helvetica;fontSize=12;fontColor=default;labelBackgroundColor=default;" edge="1" parent="1">
          <mxGeometry width="50" height="50" relative="1" as="geometry">
            <mxPoint x="490" y="130" as="sourcePoint" />
            <mxPoint x="400" y="80" as="targetPoint" />
            <Array as="points">
              <mxPoint x="490" y="80" />
            </Array>
          </mxGeometry>
        </mxCell>
        <mxCell id="7txA--DmKsE96BsF9FNY-19" value="" style="endArrow=classic;html=1;rounded=0;fontFamily=Helvetica;fontSize=12;fontColor=default;labelBackgroundColor=default;" edge="1" parent="1" target="7txA--DmKsE96BsF9FNY-3">
          <mxGeometry width="50" height="50" relative="1" as="geometry">
            <mxPoint x="296" y="80" as="sourcePoint" />
            <mxPoint x="240" y="55" as="targetPoint" />
          </mxGeometry>
        </mxCell>
        <mxCell id="7txA--DmKsE96BsF9FNY-20" value="" style="endArrow=classic;html=1;rounded=0;fontFamily=Helvetica;fontSize=12;fontColor=default;labelBackgroundColor=default;exitX=0.5;exitY=0;exitDx=0;exitDy=0;exitPerimeter=0;" edge="1" parent="1" source="7txA--DmKsE96BsF9FNY-15">
          <mxGeometry width="50" height="50" relative="1" as="geometry">
            <mxPoint x="280" y="399.5" as="sourcePoint" />
            <mxPoint x="140" y="399.5" as="targetPoint" />
          </mxGeometry>
        </mxCell>
        <mxCell id="7txA--DmKsE96BsF9FNY-21" value="&lt;font style=&quot;font-size: 14px;&quot;&gt;Cliente 1&lt;br&gt;FIFO&lt;/font&gt;" style="text;html=1;align=center;verticalAlign=middle;resizable=0;points=[];autosize=1;strokeColor=none;fillColor=none;fontFamily=Helvetica;fontSize=12;fontColor=default;labelBackgroundColor=default;" vertex="1" parent="1">
          <mxGeometry x="315" y="55" width="80" height="50" as="geometry" />
        </mxCell>
        <mxCell id="7txA--DmKsE96BsF9FNY-22" value="&lt;div&gt;&lt;font style=&quot;font-size: 14px;&quot;&gt;Cliente N&lt;/font&gt;&lt;/div&gt;&lt;font size=&quot;3&quot;&gt;FIFO&lt;/font&gt;" style="text;html=1;align=center;verticalAlign=middle;resizable=0;points=[];autosize=1;strokeColor=none;fillColor=none;fontFamily=Helvetica;fontSize=12;fontColor=default;labelBackgroundColor=default;" vertex="1" parent="1">
          <mxGeometry x="315" y="373.12" width="80" height="50" as="geometry" />
        </mxCell>
        <mxCell id="7txA--DmKsE96BsF9FNY-23" value="&lt;font style=&quot;font-size: 18px;&quot;&gt;Response&lt;/font&gt;" style="text;html=1;align=center;verticalAlign=middle;resizable=0;points=[];autosize=1;strokeColor=none;fillColor=none;fontFamily=Helvetica;fontSize=12;fontColor=default;labelBackgroundColor=default;" vertex="1" parent="1">
          <mxGeometry x="480" y="60" width="100" height="40" as="geometry" />
        </mxCell>
        <mxCell id="7txA--DmKsE96BsF9FNY-24" value="&lt;font style=&quot;font-size: 18px;&quot;&gt;Response&lt;/font&gt;" style="text;html=1;align=center;verticalAlign=middle;resizable=0;points=[];autosize=1;strokeColor=none;fillColor=none;fontFamily=Helvetica;fontSize=12;fontColor=default;labelBackgroundColor=default;" vertex="1" parent="1">
          <mxGeometry x="480" y="380" width="100" height="40" as="geometry" />
        </mxCell>
      </root>
    </mxGraphModel>
  </diagram>
</mxfile>
